<svg aria-hidden="true" style="position: absolute; width: 0; height: 0; overflow: hidden;" version="1.1" xmlns="http://www.w3.org/2000/svg" xmlns:xlink="http://www.w3.org/1999/xlink">
<defs>
<symbol id="icon-menu" viewBox="0 0 48 32">
<path d="M0 5.341v-5.336h48.014v5.336h-48.014zM0 18.677h48.014v-5.334h-48.014v5.334zM0 32.015h48.014v-5.336h-48.014v5.336z"></path>
</symbol>
<symbol id="icon-check" viewBox="0 0 34 32">
<path fill="#2196f3" style="fill: var(--color1, #2196f3)" d="M4.269-0.010h25.617c2.358 0 4.269 1.911 4.269 4.269v23.482c0 2.358-1.911 4.269-4.269 4.269h-25.617c-2.358 0-4.269-1.912-4.269-4.269v-23.482c0-2.358 1.911-4.269 4.269-4.269z"></path>
<path fill="#fff" style="fill: var(--color2, #fff); stroke: var(--color2, #fff)" stroke="#fff" stroke-linejoin="miter" stroke-linecap="butt" stroke-miterlimit="4" stroke-width="0.4267" d="M8.447 16.538l-0.147-0.141-0.147 0.139-2.058 1.951 0.162 0.156 7.61 7.258 0.147-0.141 16.181-15.436-0.162-0.154-2.030-1.936-0.147 0.141-13.989 13.333-5.42-5.17z"></path>
</symbol>
<symbol id="icon-box" viewBox="0 0 34 32">
<path d="M30.36 3.548v24.904h-26.564v-24.904h26.564zM30.36-0.010h-26.564c-2.088 0-3.796 1.601-3.796 3.559v24.904c0 1.958 1.708 3.559 3.796 3.559h26.564c2.088 0 3.796-1.601 3.796-3.559v-24.904c0-1.958-1.708-3.559-3.796-3.559z"></path>
</symbol>
</defs>
</svg>
